Coordinates
nRows=7
nColumns=24

# SIMM Motion File Header:
name Coordinates
datacolumns 24
datarows 7
otherdata 1
range 1.00000000000000000000 1.00600000000000000000

Units are S.I. units (second, meters, Newtons, ...)
Angles are in degrees.

endheader
time	pelvis_tx	pelvis_ty	pelvis_tz	pelvis_tilt	pelvis_list	pelvis_rotation	hip_flexion_r	hip_adduction_r	hip_rotation_r	knee_angle_r	ankle_angle_r	subtalar_angle_r	mtp_angle_r	hip_flexion_l	hip_adduction_l	hip_rotation_l	knee_angle_l	ankle_angle_l	subtalar_angle_l	mtp_angle_l	lumbar_extension	lumbar_bending	lumbar_rotation
      1.00000000000000000000	      0.59277164117379622000	      1.04659457673290320000	      0.04832465043372297100	      5.24420410590289520000	      0.04122687798633465500	      0.44501462845765682000	     -3.14335750552108760000	      1.91070545323145620000	     -3.91562318057495510000	    -11.43227575843430300000	      7.90735567337056900000	      0.06961883143449691700	     -0.01357396080810471500	     18.38364494376794800000	     -3.10312961875443790000	     -4.06901088416443720000	    -57.74825876455654600000	      1.65293664057774880000	      0.00894186065901723430	     -0.04694663946147146400	    -16.26182280807427800000	      1.78882264755069560000	      0.61184652386591876000
      1.00099999999999990000	      0.59264706949707036000	      1.04662543133924710000	      0.04840222849878485900	      5.24696390726447510000	      0.04191239755744462200	      0.42743612627813271000	     -3.23438397904138770000	      1.91534075080998440000	     -3.90122835558881010000	    -11.37957254826073100000	      7.92719898486590150000	      0.06970196798911869300	     -0.01398880648611493600	     18.43422123739551900000	     -3.09817943414482280000	     -4.09722668885483280000	    -57.51226756433754200000	      1.66041482975896890000	      0.00887886055374339200	     -0.04666269140527420900	    -16.27275913208685800000	      1.77903561925230510000	      0.63424880758254543000
      1.00200000000000000000	      0.59252235387538044000	      1.04665484222864880000	      0.04847936127586956900	      5.24973330923749960000	      0.04208949774886589600	      0.41006214507588512000	     -3.32535276118077940000	      1.92044745648638630000	     -3.88704544853466680000	    -11.32704313792148400000	      7.94706661850454670000	      0.06976941085941063000	     -0.01440206331871801300	     18.48390849147465400000	     -3.09418614185961660000	     -4.12640747351709790000	    -57.27410033112016000000	      1.66717080934825160000	      0.00881637189333996100	     -0.04638003891714066700	    -16.28370221061597400000	      1.76980084026588960000	      0.65646340226000588000
      1.00300000000000010000	      0.59239750192966334000	      1.04668280143721980000	      0.04855604914430126200	      5.25250837538135680000	      0.04175619373739670300	      0.39289092956750354000	     -3.41626350676793590000	      1.92602787639463660000	     -3.87306742222423850000	    -11.27468361472917400000	      7.96695699995953530000	      0.06982041586750126200	     -0.01481333816856800200	     18.53271031645788000000	     -3.09114566116881000000	     -4.15655591711055550000	    -57.03376871065895400000	      1.67320342256165700000	      0.00875440718413121600	     -0.04609869831962448000	    -16.29464676783282300000	      1.76112037546601720000	      0.67849317128341069000
      1.00400000000000000000	      0.59227252136954622000	      1.04670930069564490000	      0.04863229228349327100	      5.25528509217900910000	      0.04091068779296045500	      0.37592052974434703000	     -3.50711574137985820000	      1.93208409753698730000	     -3.85928691106096270000	    -11.22249016302629900000	      7.98686960693274630000	      0.06985353035511557300	     -0.01522408333509084700	     18.58063051607403800000	     -3.08905335572390080000	     -4.18767409924909640000	    -56.79128451407655100000	      1.67851145857958840000	      0.00869298431138067900	     -0.04581868573024452200	    -16.30558745469835800000	      1.75299608303096030000	      0.70034106563744691000
      1.00499999999999990000	      0.59214742003044596000	      1.04673433118350050000	      0.04870809056813306400	      5.25805938045572670000	      0.03955138451152281200	      0.35914881087029571000	     -3.59790888096066650000	      1.93861794700727090000	     -3.84569635437699640000	    -11.17045896956140000000	      8.00680289286417410000	      0.06986843532162744000	     -0.01563381424423349000	     18.62767307797161800000	     -3.08790402989973160000	     -4.21976347642987190000	    -56.54665971287270300000	      1.68309366339565170000	      0.00863211178137529220	     -0.04554001608438505700	    -16.31651885859595900000	      1.74542961276089750000	      0.72201011031361984000
      1.00600000000000000000	      0.59202220587482579000	      1.04675788352296850000	      0.04878344357815095300	      5.26082710101619270000	      0.03767688881060388800	      0.34257345656130550000	     -3.68864223006769310000	      1.94563100171590800000	     -3.83228800921061420000	    -11.11858624270717800000	      8.02675437267298440000	      0.06986551250285130700	     -0.01604029651179820700	     18.67384217005103200000	     -3.08769194078634080000	     -4.25282487062494670000	    -56.29990644101729200000	      1.68694875735494440000	      0.00857179177290455510	     -0.04526270334523086600	    -16.32743550953811600000	      1.73842240702144160000	      0.74350340344071653000
